# xmcd
#
# Track frame offsets:
#	150
#	17807
#	36265
#	51377
#	67375
#	87682
#	107242
#	123510
#	144242
#	168912
#	192037
#	204667
#	229402
#
# Disc length: 3332 seconds
#
# Revision: 0
# Processed by: cddbd v1.5PL3 Copyright (c) Steve Scherf et al.
# Submitted via: EasyCDDAExtractor 5.0.0.0
#
DISCID=c50d020d
DTITLE=Carla Olson and the Textones - Midnight Mission
DYEAR=1984
DGENRE=Country
TTITLE0=Standing In The Line
TTITLE1=Hands Of The Working Man
TTITLE2=No Love In You
TTITLE3=Running
TTITLE4=Number One Is To Survive
TTITLE5=Midnight Mission
TTITLE6=Upset Me
TTITLE7=Luck Don't Last Forever
TTITLE8=Clean Cut Kid
TTITLE9=See The Light
TTITLE10=It's Okay
TTITLE11=Clean Cut Kid (alternate mix)
TTITLE12=Number One Is To Survive (alternate mix)
EXTD=
EXTT0=
EXTT1=
EXTT2=
EXTT3=
EXTT4=
EXTT5=
EXTT6=
EXTT7=
EXTT8=
EXTT9=
EXTT10=
EXTT11=
EXTT12=
PLAYORDER=
